# xmcd
#
# Track frame offsets:
# 150
# 11097
# 21974
# 33066
# 46474
# 58840
# 70697
# 88572
# 104075
# 115536
# 131992
# 143241
# 155669
# 166045
# 176421
# 185500
# 197248
# 207658
# 218039
# 231472
# 256645
# 279710
#
# Disc length: 4039 seconds
#
#
# Revision: 0
# Processed by: cddbd v1.5.1PL0 Copyright (c) Steve Scherf et al.
# Submitted via: FreeRIP 2.90 
#
DISCID=440fc516
DTITLE=The Yardbirds - the very best of
DYEAR=2004
DGENRE=Rock and Roll
TTITLE0=Shapes of Things
TTITLE1=Evil-Hearted You
TTITLE2=Heart Full of Soul
TTITLE3=Still I'm Sad
TTITLE4=Stroll On
TTITLE5=I'm a Man
TTITLE6=You're a Better Man Than I
TTITLE7=Train Kept A-Rollin'
TTITLE8=I'm Not Talkin'
TTITLE9=I Ain't Done Wrong
TTITLE10=For Your Love
TTITLE11=Good Morning, Little Schoolgirl
TTITLE12=I Wish You Would
TTITLE13=A Certain Girl
TTITLE14=I Ain't Got You
TTITLE15=Got To Hurry
TTITLE16=Putty In Your Hands
TTITLE17=Let It Rock
TTITLE18=Too Much Monkey Business
TTITLE19=Smokestack Lightning
TTITLE20=Five Long Years
TTITLE21=Here 'Tis
EXTD=
EXTT0=
EXTT1=
EXTT2=
EXTT3=
EXTT4=
EXTT5=
EXTT6=
EXTT7=
EXTT8=
EXTT9=
EXTT10=
EXTT11=
EXTT12=
EXTT13=
EXTT14=
EXTT15=
EXTT16=
EXTT17=
EXTT18=
EXTT19=
EXTT20=
EXTT21=
PLAYORDER=
